<svg xmlns="http://www.w3.org/2000/svg" version="1.1" xmlns:xlink="http://www.w3.org/1999/xlink" xmlns:svgjs="http://svgjs.dev/svgjs" width="1000" height="196" viewBox="0 0 1000 196"><g transform="matrix(1,0,0,1,-0.6060606060606233,0.5399382426609236)"><svg viewBox="0 0 396 78" data-background-color="#4d7e3e" preserveAspectRatio="xMidYMid meet" height="196" width="1000" xmlns="http://www.w3.org/2000/svg" xmlns:xlink="http://www.w3.org/1999/xlink"><defs></defs><g id="tight-bounds" transform="matrix(1,0,0,1,0.2400000000000091,-0.21487338228342878)"><svg viewBox="0 0 395.52 78.42974676456689" height="78.42974676456689" width="395.52"><g><svg viewBox="0 0 505.36086825629246 100.21067182964873" height="78.42974676456689" width="395.52"><g transform="matrix(1,0,0,1,0,13.84966593304118)"><svg viewBox="0 0 395.52 72.51133996356637" height="72.51133996356637" width="395.52"><g><svg viewBox="0 0 395.52 72.51133996356637" height="72.51133996356637" width="395.52"><g><svg viewBox="0 0 395.52 40.792780403953586" height="40.792780403953586" width="395.52"><g transform="matrix(1,0,0,1,0,0)"><svg width="395.52" viewBox="1.5 -35.5 349.02 36" height="40.792780403953586" data-palette-color="#c9efc7"><path d="M15.6 0L15.6 0Q14.2 0 13.3-0.88 12.4-1.75 12.4-3.05L12.4-3.05 12.4-32.05 18.9-32.05 18.9-3.05Q18.9-1.75 17.98-0.88 17.05 0 15.6 0ZM26.75-29.25L4.55-29.25Q3.25-29.25 2.38-30.05 1.5-30.85 1.5-32.15L1.5-32.15Q1.5-33.45 2.38-34.23 3.25-35 4.55-35L4.55-35 26.75-35Q28.05-35 28.93-34.2 29.8-33.4 29.8-32.1L29.8-32.1Q29.8-30.8 28.93-30.03 28.05-29.25 26.75-29.25L26.75-29.25ZM38.25-35L38.25-35Q39.45-35 40.37-34.13 41.3-33.25 41.3-31.95L41.3-31.95 41.3-3.05Q41.3-1.75 40.35-0.88 39.4 0 38.15 0L38.15 0Q36.75 0 35.9-0.88 35.05-1.75 35.05-3.05L35.05-3.05 35.05-31.95Q35.05-33.25 35.95-34.13 36.85-35 38.25-35ZM60.4-35L60.4-35Q61.8-35 62.65-34.13 63.5-33.25 63.5-31.95L63.5-31.95 63.5-3.05Q63.5-1.75 62.62-0.88 61.75 0 60.3 0L60.3 0Q59.1 0 58.17-0.88 57.25-1.75 57.25-3.05L57.25-3.05 57.25-31.95Q57.25-33.25 58.2-34.13 59.15-35 60.4-35ZM38.1-14.7L38.1-20.45 60.4-20.45 60.4-14.7 38.1-14.7ZM74.05-35L74.05-35 90.8-35Q92.09-35 92.97-34.18 93.84-33.35 93.84-32.05L93.84-32.05Q93.84-30.8 92.97-30.03 92.09-29.25 90.8-29.25L90.8-29.25 76.8-29.25 77.25-30.1 77.25-20.35 76.84-20.75 88.55-20.75Q89.84-20.75 90.72-19.93 91.59-19.1 91.59-17.8L91.59-17.8Q91.59-16.55 90.72-15.78 89.84-15 88.55-15L88.55-15 77-15 77.25-15.4 77.25-5.3 76.84-5.75 90.8-5.75Q92.09-5.75 92.97-4.88 93.84-4 93.84-2.85L93.84-2.85Q93.84-1.6 92.97-0.8 92.09 0 90.8 0L90.8 0 74.05 0Q72.75 0 71.87-0.88 71-1.75 71-3.05L71-3.05 71-31.95Q71-33.25 71.87-34.13 72.75-35 74.05-35ZM130.09 0.5L130.09 0.5Q126.29 0.5 122.99-0.9 119.69-2.3 117.19-4.78 114.69-7.25 113.27-10.5 111.84-13.75 111.84-17.5L111.84-17.5Q111.84-21.25 113.27-24.5 114.69-27.75 117.19-30.23 119.69-32.7 122.99-34.1 126.29-35.5 130.09-35.5L130.09-35.5Q132.44-35.5 134.64-35 136.84-34.5 138.69-33.5L138.69-33.5Q139.44-33.1 139.81-32.43 140.19-31.75 140.19-31.05L140.19-31.05Q140.19-29.85 139.39-28.9 138.59-27.95 137.34-27.95L137.34-27.95Q136.94-27.95 136.52-28.05 136.09-28.15 135.69-28.35L135.69-28.35Q134.44-28.9 133.04-29.2 131.64-29.5 130.09-29.5L130.09-29.5Q126.84-29.5 124.17-27.88 121.49-26.25 119.92-23.53 118.34-20.8 118.34-17.5L118.34-17.5Q118.34-14.25 119.92-11.5 121.49-8.75 124.17-7.13 126.84-5.5 130.09-5.5L130.09-5.5Q131.59-5.5 133.39-5.8 135.19-6.1 136.34-6.6L136.34-6.6 135.89-5.1 135.89-13.65 136.74-12.9 131.19-12.9Q129.89-12.9 129.02-13.75 128.14-14.6 128.14-15.9L128.14-15.9Q128.14-17.2 129.02-18.05 129.89-18.9 131.19-18.9L131.19-18.9 139.39-18.9Q140.69-18.9 141.54-18.03 142.39-17.15 142.39-15.85L142.39-15.85 142.39-5.25Q142.39-4.25 141.92-3.6 141.44-2.95 140.84-2.55L140.84-2.55Q138.54-1.15 135.81-0.33 133.09 0.5 130.09 0.5ZM151.99 0L151.99 0Q150.59 0 149.49-0.88 148.39-1.75 148.39-3.05L148.39-3.05 148.39-31.95Q148.39-33.25 149.26-34.13 150.14-35 151.44-35L151.44-35 165.84-35Q168.44-35 170.71-33.63 172.99-32.25 174.39-29.83 175.79-27.4 175.79-24.25L175.79-24.25Q175.79-22.35 175.01-20.55 174.24-18.75 172.91-17.3 171.59-15.85 169.94-15.05L169.94-15.05 169.99-16.2Q171.39-15.45 172.31-14.43 173.24-13.4 173.76-12.23 174.29-11.05 174.39-9.7L174.39-9.7Q174.59-8.45 174.66-7.5 174.74-6.55 174.96-5.9 175.19-5.25 175.84-4.9L175.84-4.9Q176.94-4.25 177.21-3.03 177.49-1.8 176.64-0.85L176.64-0.85Q176.09-0.2 175.24-0.03 174.39 0.15 173.54-0.03 172.69-0.2 172.14-0.5L172.14-0.5Q171.29-1 170.44-1.98 169.59-2.95 169.06-4.6 168.54-6.25 168.54-8.85L168.54-8.85Q168.54-9.7 168.24-10.43 167.94-11.15 167.39-11.68 166.84-12.2 165.99-12.48 165.14-12.75 163.99-12.75L163.99-12.75 153.89-12.75 154.64-13.9 154.64-3.05Q154.64-1.75 153.94-0.88 153.24 0 151.99 0ZM154.64-16.7L153.94-17.9 165.59-17.9Q166.49-17.9 167.34-18.73 168.19-19.55 168.74-20.98 169.29-22.4 169.29-24.1L169.29-24.1Q169.29-26.3 168.11-27.78 166.94-29.25 165.59-29.25L165.59-29.25 154.04-29.25 154.64-30.85 154.64-16.7ZM185.79-35L185.79-35 202.54-35Q203.84-35 204.71-34.18 205.59-33.35 205.59-32.05L205.59-32.05Q205.59-30.8 204.71-30.03 203.84-29.25 202.54-29.25L202.54-29.25 188.54-29.25 188.99-30.1 188.99-20.35 188.59-20.75 200.29-20.75Q201.59-20.75 202.46-19.93 203.34-19.1 203.34-17.8L203.34-17.8Q203.34-16.55 202.46-15.78 201.59-15 200.29-15L200.29-15 188.74-15 188.99-15.4 188.99-5.3 188.59-5.75 202.54-5.75Q203.84-5.75 204.71-4.88 205.59-4 205.59-2.85L205.59-2.85Q205.59-1.6 204.71-0.8 203.84 0 202.54 0L202.54 0 185.79 0Q184.49 0 183.61-0.88 182.74-1.75 182.74-3.05L182.74-3.05 182.74-31.95Q182.74-33.25 183.61-34.13 184.49-35 185.79-35ZM214.38-35L214.38-35 231.13-35Q232.43-35 233.31-34.18 234.18-33.35 234.18-32.05L234.18-32.05Q234.18-30.8 233.31-30.03 232.43-29.25 231.13-29.25L231.13-29.25 217.13-29.25 217.58-30.1 217.58-20.35 217.18-20.75 228.88-20.75Q230.18-20.75 231.06-19.93 231.93-19.1 231.93-17.8L231.93-17.8Q231.93-16.55 231.06-15.78 230.18-15 228.88-15L228.88-15 217.33-15 217.58-15.4 217.58-5.3 217.18-5.75 231.13-5.75Q232.43-5.75 233.31-4.88 234.18-4 234.18-2.85L234.18-2.85Q234.18-1.6 233.31-0.8 232.43 0 231.13 0L231.13 0 214.38 0Q213.08 0 212.21-0.88 211.33-1.75 211.33-3.05L211.33-3.05 211.33-31.95Q211.33-33.25 212.21-34.13 213.08-35 214.38-35ZM251.78 0L251.78 0Q250.38 0 249.48-0.88 248.58-1.75 248.58-3.05L248.58-3.05 248.58-32.05 255.08-32.05 255.08-3.05Q255.08-1.75 254.16-0.88 253.23 0 251.78 0ZM262.93-29.25L240.73-29.25Q239.43-29.25 238.56-30.05 237.68-30.85 237.68-32.15L237.68-32.15Q237.68-33.45 238.56-34.23 239.43-35 240.73-35L240.73-35 262.93-35Q264.23-35 265.11-34.2 265.98-33.4 265.98-32.1L265.98-32.1Q265.98-30.8 265.11-30.03 264.23-29.25 262.93-29.25L262.93-29.25ZM277.48-31.95L277.48-3.05Q277.48-1.75 276.53-0.88 275.58 0 274.33 0L274.33 0Q272.93 0 272.08-0.88 271.23-1.75 271.23-3.05L271.23-3.05 271.23-31.95Q271.23-33.25 272.13-34.13 273.03-35 274.43-35L274.43-35Q275.63-35 276.55-34.13 277.48-33.25 277.48-31.95L277.48-31.95ZM311.53-35L311.53-35Q312.73-35 313.48-34.2 314.23-33.4 314.23-32.2L314.23-32.2 314.23-3.05Q314.23-1.75 313.35-0.88 312.48 0 311.18 0L311.18 0Q310.53 0 309.85-0.23 309.18-0.45 308.83-0.85L308.83-0.85 289.18-25.8 290.48-26.6 290.48-2.8Q290.48-1.6 289.7-0.8 288.93 0 287.68 0L287.68 0Q286.48 0 285.73-0.8 284.98-1.6 284.98-2.8L284.98-2.8 284.98-31.95Q284.98-33.25 285.85-34.13 286.73-35 288.03-35L288.03-35Q288.73-35 289.48-34.73 290.23-34.45 290.58-33.9L290.58-33.9 309.63-9.6 308.78-9 308.78-32.2Q308.78-33.4 309.53-34.2 310.28-35 311.53-35ZM338.22 0.5L338.22 0.5Q334.42 0.5 331.12-0.9 327.82-2.3 325.32-4.78 322.82-7.25 321.4-10.5 319.97-13.75 319.97-17.5L319.97-17.5Q319.97-21.25 321.4-24.5 322.82-27.75 325.32-30.23 327.82-32.7 331.12-34.1 334.42-35.5 338.22-35.5L338.22-35.5Q340.57-35.5 342.77-35 344.97-34.5 346.82-33.5L346.82-33.5Q347.57-33.1 347.95-32.43 348.32-31.75 348.32-31.05L348.32-31.05Q348.32-29.85 347.52-28.9 346.72-27.95 345.47-27.95L345.47-27.95Q345.07-27.95 344.65-28.05 344.22-28.15 343.82-28.35L343.82-28.35Q342.57-28.9 341.17-29.2 339.77-29.5 338.22-29.5L338.22-29.5Q334.97-29.5 332.3-27.88 329.62-26.25 328.05-23.53 326.47-20.8 326.47-17.5L326.47-17.5Q326.47-14.25 328.05-11.5 329.62-8.75 332.3-7.13 334.97-5.5 338.22-5.5L338.22-5.5Q339.72-5.5 341.52-5.8 343.32-6.1 344.47-6.6L344.47-6.6 344.02-5.1 344.02-13.65 344.87-12.9 339.32-12.9Q338.02-12.9 337.15-13.75 336.27-14.6 336.27-15.9L336.27-15.9Q336.27-17.2 337.15-18.05 338.02-18.9 339.32-18.9L339.32-18.9 347.52-18.9Q348.82-18.9 349.67-18.03 350.52-17.15 350.52-15.85L350.52-15.85 350.52-5.25Q350.52-4.25 350.05-3.6 349.57-2.95 348.97-2.55L348.97-2.55Q346.67-1.15 343.95-0.33 341.22 0.5 338.22 0.5Z" opacity="1" transform="matrix(1,0,0,1,0,0)" fill="#c9efc7" class="undefined-text-0" data-fill-palette-color="primary" id="text-0"></path></svg></g></svg></g><g transform="matrix(1,0,0,1,163.310208,50.422976830597335)"><svg viewBox="0 0 232.209792 22.088363132969032" height="22.088363132969032" width="232.209792"><g transform="matrix(1,0,0,1,0,0)"><svg width="232.209792" viewBox="2 -37 494.05 47" height="22.088363132969032" data-palette-color="#c9efc7"><path d="M15 0.5L15 0.5Q11.5 0.5 8.7-0.38 5.9-1.25 3.35-3.45L3.35-3.45Q2.7-4 2.35-4.7 2-5.4 2-6.1L2-6.1Q2-7.25 2.83-8.13 3.65-9 4.9-9L4.9-9Q5.85-9 6.6-8.4L6.6-8.4Q8.5-6.85 10.38-6.05 12.25-5.25 15-5.25L15-5.25Q16.85-5.25 18.4-5.83 19.95-6.4 20.9-7.38 21.85-8.35 21.85-9.6L21.85-9.6Q21.85-11.1 20.95-12.15 20.05-13.2 18.2-13.93 16.35-14.65 13.5-15.05L13.5-15.05Q10.8-15.45 8.75-16.28 6.7-17.1 5.33-18.38 3.95-19.65 3.25-21.38 2.55-23.1 2.55-25.25L2.55-25.25Q2.55-28.5 4.23-30.8 5.9-33.1 8.75-34.3 11.6-35.5 15.05-35.5L15.05-35.5Q18.3-35.5 21.08-34.52 23.85-33.55 25.6-32.05L25.6-32.05Q27.05-30.9 27.05-29.4L27.05-29.4Q27.05-28.3 26.2-27.4 25.35-26.5 24.2-26.5L24.2-26.5Q23.45-26.5 22.85-26.95L22.85-26.95Q22.05-27.65 20.7-28.28 19.35-28.9 17.85-29.33 16.35-29.75 15.05-29.75L15.05-29.75Q12.9-29.75 11.43-29.2 9.95-28.65 9.2-27.7 8.45-26.75 8.45-25.5L8.45-25.5Q8.45-24 9.33-23.03 10.2-22.05 11.85-21.48 13.5-20.9 15.8-20.45L15.8-20.45Q18.8-19.9 21.08-19.15 23.35-18.4 24.85-17.23 26.35-16.05 27.1-14.28 27.85-12.5 27.85-9.95L27.85-9.95Q27.85-6.7 26.05-4.35 24.25-2 21.33-0.75 18.4 0.5 15 0.5ZM38.75-23.7L38.75-3.05Q38.75-1.75 37.9-0.88 37.05 0 35.75 0L35.75 0Q34.45 0 33.6-0.88 32.75-1.75 32.75-3.05L32.75-3.05 32.75-23.7Q32.75-25 33.6-25.88 34.45-26.75 35.75-26.75L35.75-26.75Q37.05-26.75 37.9-25.88 38.75-25 38.75-23.7L38.75-23.7ZM35.7-30L35.7-30Q34-30 33.3-30.55 32.6-31.1 32.6-32.5L32.6-32.5 32.6-33.45Q32.6-34.9 33.37-35.43 34.15-35.95 35.75-35.95L35.75-35.95Q37.5-35.95 38.2-35.4 38.9-34.85 38.9-33.45L38.9-33.45 38.9-32.5Q38.9-31.05 38.15-30.53 37.4-30 35.7-30ZM58.95-27.25L58.95-27.25Q62.95-27.25 64.84-25.33 66.75-23.4 67.34-20.35L67.34-20.35 66.5-20.8 66.9-21.6Q67.5-22.75 68.75-24.08 70-25.4 71.77-26.33 73.55-27.25 75.75-27.25L75.75-27.25Q79.34-27.25 81.22-25.7 83.09-24.15 83.8-21.58 84.5-19 84.5-15.85L84.5-15.85 84.5-3.05Q84.5-1.75 83.65-0.88 82.8 0 81.5 0L81.5 0Q80.2 0 79.34-0.88 78.5-1.75 78.5-3.05L78.5-3.05 78.5-15.85Q78.5-17.5 78.09-18.82 77.7-20.15 76.65-20.95 75.59-21.75 73.65-21.75L73.65-21.75Q71.75-21.75 70.4-20.95 69.05-20.15 68.37-18.82 67.7-17.5 67.7-15.85L67.7-15.85 67.7-3.05Q67.7-1.75 66.84-0.88 66 0 64.7 0L64.7 0Q63.4 0 62.55-0.88 61.7-1.75 61.7-3.05L61.7-3.05 61.7-15.85Q61.7-17.5 61.3-18.82 60.9-20.15 59.84-20.95 58.8-21.75 56.85-21.75L56.85-21.75Q54.95-21.75 53.6-20.95 52.25-20.15 51.57-18.82 50.9-17.5 50.9-15.85L50.9-15.85 50.9-3.05Q50.9-1.75 50.05-0.88 49.2 0 47.9 0L47.9 0Q46.6 0 45.75-0.88 44.9-1.75 44.9-3.05L44.9-3.05 44.9-23.7Q44.9-25 45.75-25.88 46.6-26.75 47.9-26.75L47.9-26.75Q49.2-26.75 50.05-25.88 50.9-25 50.9-23.7L50.9-23.7 50.9-21.55 50.15-21.7Q50.6-22.55 51.4-23.53 52.2-24.5 53.35-25.35 54.5-26.2 55.9-26.73 57.3-27.25 58.95-27.25ZM104.84-27.25L104.84-27.25Q108.34-27.25 111.12-25.48 113.89-23.7 115.52-20.6 117.14-17.5 117.14-13.4L117.14-13.4Q117.14-9.3 115.52-6.18 113.89-3.05 111.17-1.28 108.44 0.5 105.04 0.5L105.04 0.5Q103.04 0.5 101.29-0.15 99.54-0.8 98.22-1.8 96.89-2.8 96.17-3.83 95.44-4.85 95.44-5.55L95.44-5.55 96.99-6.2 96.99 6.95Q96.99 8.25 96.14 9.13 95.29 10 93.99 10L93.99 10Q92.69 10 91.84 9.15 90.99 8.3 90.99 6.95L90.99 6.95 90.99-23.7Q90.99-25 91.84-25.88 92.69-26.75 93.99-26.75L93.99-26.75Q95.29-26.75 96.14-25.88 96.99-25 96.99-23.7L96.99-23.7 96.99-21.25 96.14-21.7Q96.14-22.35 96.84-23.28 97.54-24.2 98.74-25.13 99.94-26.05 101.52-26.65 103.09-27.25 104.84-27.25ZM104.09-21.75L104.09-21.75Q101.89-21.75 100.24-20.65 98.59-19.55 97.67-17.68 96.74-15.8 96.74-13.4L96.74-13.4Q96.74-11.05 97.67-9.13 98.59-7.2 100.24-6.1 101.89-5 104.09-5L104.09-5Q106.29-5 107.92-6.1 109.54-7.2 110.47-9.13 111.39-11.05 111.39-13.4L111.39-13.4Q111.39-15.8 110.47-17.68 109.54-19.55 107.92-20.65 106.29-21.75 104.09-21.75ZM128.64-33.95L128.64-3.05Q128.64-1.75 127.77-0.88 126.89 0 125.59 0L125.59 0Q124.34 0 123.49-0.88 122.64-1.75 122.64-3.05L122.64-3.05 122.64-33.95Q122.64-35.25 123.52-36.13 124.39-37 125.69-37L125.69-37Q126.99-37 127.82-36.13 128.64-35.25 128.64-33.95L128.64-33.95ZM147.49 0.5L147.49 0.5Q143.24 0.5 140.11-1.28 136.99-3.05 135.31-6.1 133.64-9.15 133.64-13L133.64-13Q133.64-17.5 135.46-20.68 137.29-23.85 140.24-25.55 143.19-27.25 146.49-27.25L146.49-27.25Q149.04-27.25 151.31-26.2 153.59-25.15 155.34-23.33 157.09-21.5 158.11-19.1 159.14-16.7 159.14-14L159.14-14Q159.09-12.8 158.19-12.05 157.29-11.3 156.09-11.3L156.09-11.3 136.99-11.3 135.49-16.3 153.84-16.3 152.74-15.3 152.74-16.65Q152.64-18.1 151.71-19.25 150.79-20.4 149.41-21.08 148.04-21.75 146.49-21.75L146.49-21.75Q144.99-21.75 143.69-21.35 142.39-20.95 141.44-20 140.49-19.05 139.94-17.45 139.39-15.85 139.39-13.4L139.39-13.4Q139.39-10.7 140.51-8.83 141.64-6.95 143.41-5.98 145.19-5 147.19-5L147.19-5Q149.04-5 150.14-5.3 151.24-5.6 151.91-6.03 152.59-6.45 153.14-6.75L153.14-6.75Q154.04-7.2 154.84-7.2L154.84-7.2Q155.94-7.2 156.66-6.45 157.39-5.7 157.39-4.7L157.39-4.7Q157.39-3.35 155.99-2.25L155.99-2.25Q154.69-1.15 152.34-0.33 149.99 0.5 147.49 0.5ZM191.98-27.25L191.98-27.25Q195.48-27.25 198.26-25.48 201.03-23.7 202.66-20.6 204.28-17.5 204.28-13.4L204.28-13.4Q204.28-9.3 202.66-6.18 201.03-3.05 198.31-1.28 195.58 0.5 192.18 0.5L192.18 0.5Q190.18 0.5 188.43-0.15 186.68-0.8 185.36-1.8 184.03-2.8 183.31-3.83 182.58-4.85 182.58-5.55L182.58-5.55 184.13-6.2 184.13-2.55Q184.13-1.25 183.28-0.38 182.43 0.5 181.13 0.5L181.13 0.5Q179.83 0.5 178.98-0.35 178.13-1.2 178.13-2.55L178.13-2.55 178.13-33.95Q178.13-35.25 178.98-36.13 179.83-37 181.13-37L181.13-37Q182.43-37 183.28-36.13 184.13-35.25 184.13-33.95L184.13-33.95 184.13-21.25 183.28-21.7Q183.28-22.35 183.98-23.28 184.68-24.2 185.88-25.13 187.08-26.05 188.66-26.65 190.23-27.25 191.98-27.25ZM191.23-21.75L191.23-21.75Q189.03-21.75 187.38-20.65 185.73-19.55 184.81-17.68 183.88-15.8 183.88-13.4L183.88-13.4Q183.88-11.05 184.81-9.13 185.73-7.2 187.38-6.1 189.03-5 191.23-5L191.23-5Q193.43-5 195.06-6.1 196.68-7.2 197.61-9.13 198.53-11.05 198.53-13.4L198.53-13.4Q198.53-15.8 197.61-17.68 196.68-19.55 195.06-20.65 193.43-21.75 191.23-21.75ZM229.13-26.75L229.13-26.75Q230.43-26.75 231.28-25.88 232.13-25 232.13-23.7L232.13-23.7 232.13-11Q232.13-5.7 229.18-2.6 226.23 0.5 220.68 0.5L220.68 0.5Q215.13 0.5 212.21-2.6 209.28-5.7 209.28-11L209.28-11 209.28-23.7Q209.28-25 210.13-25.88 210.98-26.75 212.28-26.75L212.28-26.75Q213.58-26.75 214.43-25.88 215.28-25 215.28-23.7L215.28-23.7 215.28-11Q215.28-7.95 216.63-6.48 217.98-5 220.68-5L220.68-5Q223.43-5 224.78-6.48 226.13-7.95 226.13-11L226.13-11 226.13-23.7Q226.13-25 226.98-25.88 227.83-26.75 229.13-26.75ZM238.93-26.25L238.93-26.25 250.78-26.25Q251.98-26.25 252.78-25.45 253.58-24.65 253.58-23.45L253.58-23.45Q253.58-22.3 252.78-21.53 251.98-20.75 250.78-20.75L250.78-20.75 238.93-20.75Q237.73-20.75 236.93-21.55 236.13-22.35 236.13-23.55L236.13-23.55Q236.13-24.7 236.93-25.48 237.73-26.25 238.93-26.25ZM244.28-32.5L244.28-32.5Q245.58-32.5 246.4-31.63 247.23-30.75 247.23-29.45L247.23-29.45 247.23-7.2Q247.23-6.5 247.5-6.05 247.78-5.6 248.25-5.4 248.73-5.2 249.28-5.2L249.28-5.2Q249.88-5.2 250.38-5.43 250.88-5.65 251.53-5.65L251.53-5.65Q252.23-5.65 252.8-5 253.38-4.35 253.38-3.2L253.38-3.2Q253.38-1.8 251.85-0.9 250.33 0 248.58 0L248.58 0Q247.53 0 246.25-0.18 244.98-0.35 243.85-1.03 242.73-1.7 241.98-3.1 241.23-4.5 241.23-6.95L241.23-6.95 241.23-29.45Q241.23-30.75 242.1-31.63 242.98-32.5 244.28-32.5ZM284.97-26.85L286.42-27.15 275.62-1.75Q275.27-0.8 274.55-0.28 273.82 0.25 272.97 0.25L272.97 0.25Q271.62 0.25 270.97-0.5 270.32-1.25 270.32-2.35L270.32-2.35Q270.32-2.8 270.47-3.3L270.47-3.3 282.92-33.2Q283.32-34.2 284.15-34.75 284.97-35.3 285.92-35.2L285.92-35.2Q286.82-35.2 287.6-34.68 288.37-34.15 288.72-33.2L288.72-33.2 301.02-3.9Q301.27-3.25 301.27-2.7L301.27-2.7Q301.27-1.35 300.4-0.55 299.52 0.25 298.47 0.25L298.47 0.25Q297.57 0.25 296.85-0.3 296.12-0.85 295.72-1.8L295.72-1.8 284.97-26.85ZM294.37-7.85L277.17-7.85 279.92-13.6 293.42-13.6 294.37-7.85ZM324.37-26.75L324.37-26.75Q325.67-26.75 326.52-25.88 327.37-25 327.37-23.7L327.37-23.7 327.37-11Q327.37-5.7 324.42-2.6 321.47 0.5 315.92 0.5L315.92 0.5Q310.37 0.5 307.45-2.6 304.52-5.7 304.52-11L304.52-11 304.52-23.7Q304.52-25 305.37-25.88 306.22-26.75 307.52-26.75L307.52-26.75Q308.82-26.75 309.67-25.88 310.52-25 310.52-23.7L310.52-23.7 310.52-11Q310.52-7.95 311.87-6.48 313.22-5 315.92-5L315.92-5Q318.67-5 320.02-6.48 321.37-7.95 321.37-11L321.37-11 321.37-23.7Q321.37-25 322.22-25.88 323.07-26.75 324.37-26.75ZM334.17-26.25L334.17-26.25 346.02-26.25Q347.22-26.25 348.02-25.45 348.82-24.65 348.82-23.45L348.82-23.45Q348.82-22.3 348.02-21.53 347.22-20.75 346.02-20.75L346.02-20.75 334.17-20.75Q332.97-20.75 332.17-21.55 331.37-22.35 331.37-23.55L331.37-23.55Q331.37-24.7 332.17-25.48 332.97-26.25 334.17-26.25ZM339.52-32.5L339.52-32.5Q340.82-32.5 341.64-31.63 342.47-30.75 342.47-29.45L342.47-29.45 342.47-7.2Q342.47-6.5 342.74-6.05 343.02-5.6 343.49-5.4 343.97-5.2 344.52-5.2L344.52-5.2Q345.12-5.2 345.62-5.43 346.12-5.65 346.77-5.65L346.77-5.65Q347.47-5.65 348.04-5 348.62-4.35 348.62-3.2L348.62-3.2Q348.62-1.8 347.09-0.9 345.57 0 343.82 0L343.82 0Q342.77 0 341.49-0.18 340.22-0.35 339.09-1.03 337.97-1.7 337.22-3.1 336.47-4.5 336.47-6.95L336.47-6.95 336.47-29.45Q336.47-30.75 337.34-31.63 338.22-32.5 339.52-32.5ZM368.37-27.25L368.37-27.25Q371.97-27.25 373.84-25.7 375.72-24.15 376.42-21.58 377.12-19 377.12-15.85L377.12-15.85 377.12-3.05Q377.12-1.75 376.27-0.88 375.42 0 374.12 0L374.12 0Q372.82 0 371.97-0.88 371.12-1.75 371.12-3.05L371.12-3.05 371.12-15.85Q371.12-17.5 370.72-18.82 370.32-20.15 369.27-20.95 368.22-21.75 366.27-21.75L366.27-21.75Q364.37-21.75 363.02-20.95 361.67-20.15 360.99-18.82 360.32-17.5 360.32-15.85L360.32-15.85 360.32-3.05Q360.32-1.75 359.47-0.88 358.62 0 357.32 0L357.32 0Q356.02 0 355.17-0.88 354.32-1.75 354.32-3.05L354.32-3.05 354.32-33.95Q354.32-35.25 355.17-36.13 356.02-37 357.32-37L357.32-37Q358.62-37 359.47-36.13 360.32-35.25 360.32-33.95L360.32-33.95 360.32-21.55 359.57-21.7Q360.02-22.55 360.82-23.53 361.62-24.5 362.77-25.35 363.92-26.2 365.32-26.73 366.72-27.25 368.37-27.25ZM395.96 0.5L395.96 0.5Q391.71 0.5 388.59-1.28 385.46-3.05 383.79-6.1 382.11-9.15 382.11-13L382.11-13Q382.11-17.5 383.94-20.68 385.76-23.85 388.71-25.55 391.66-27.25 394.96-27.25L394.96-27.25Q397.51-27.25 399.79-26.2 402.06-25.15 403.81-23.33 405.56-21.5 406.59-19.1 407.61-16.7 407.61-14L407.61-14Q407.56-12.8 406.66-12.05 405.76-11.3 404.56-11.3L404.56-11.3 385.46-11.3 383.96-16.3 402.31-16.3 401.21-15.3 401.21-16.65Q401.11-18.1 400.19-19.25 399.26-20.4 397.89-21.08 396.51-21.75 394.96-21.75L394.96-21.75Q393.46-21.75 392.16-21.35 390.86-20.95 389.91-20 388.96-19.05 388.41-17.45 387.86-15.85 387.86-13.4L387.86-13.4Q387.86-10.7 388.99-8.83 390.11-6.95 391.89-5.98 393.66-5 395.66-5L395.66-5Q397.51-5 398.61-5.3 399.71-5.6 400.39-6.03 401.06-6.45 401.61-6.75L401.61-6.75Q402.51-7.2 403.31-7.2L403.31-7.2Q404.41-7.2 405.14-6.45 405.86-5.7 405.86-4.7L405.86-4.7Q405.86-3.35 404.46-2.25L404.46-2.25Q403.16-1.15 400.81-0.33 398.46 0.5 395.96 0.5ZM426.91-27.25L426.91-27.25Q430.61-27.25 432.54-25.7 434.46-24.15 435.19-21.58 435.91-19 435.91-15.85L435.91-15.85 435.91-3.05Q435.91-1.75 435.06-0.88 434.21 0 432.91 0L432.91 0Q431.61 0 430.76-0.88 429.91-1.75 429.91-3.05L429.91-3.05 429.91-15.85Q429.91-17.5 429.49-18.82 429.06-20.15 427.96-20.95 426.86-21.75 424.81-21.75L424.81-21.75Q422.81-21.75 421.44-20.95 420.06-20.15 419.34-18.82 418.61-17.5 418.61-15.85L418.61-15.85 418.61-3.05Q418.61-1.75 417.76-0.88 416.91 0 415.61 0L415.61 0Q414.31 0 413.46-0.88 412.61-1.75 412.61-3.05L412.61-3.05 412.61-23.7Q412.61-25 413.46-25.88 414.31-26.75 415.61-26.75L415.61-26.75Q416.91-26.75 417.76-25.88 418.61-25 418.61-23.7L418.61-23.7 418.61-21.55 417.86-21.7Q418.31-22.55 419.16-23.53 420.01-24.5 421.16-25.35 422.31-26.2 423.76-26.73 425.21-27.25 426.91-27.25ZM442.71-26.25L442.71-26.25 454.56-26.25Q455.76-26.25 456.56-25.45 457.36-24.65 457.36-23.45L457.36-23.45Q457.36-22.3 456.56-21.53 455.76-20.75 454.56-20.75L454.56-20.75 442.71-20.75Q441.51-20.75 440.71-21.55 439.91-22.35 439.91-23.55L439.91-23.55Q439.91-24.7 440.71-25.48 441.51-26.25 442.71-26.25ZM448.06-32.5L448.06-32.5Q449.36-32.5 450.18-31.63 451.01-30.75 451.01-29.45L451.01-29.45 451.01-7.2Q451.01-6.5 451.28-6.05 451.56-5.6 452.03-5.4 452.51-5.2 453.06-5.2L453.06-5.2Q453.66-5.2 454.16-5.43 454.66-5.65 455.31-5.65L455.31-5.65Q456.01-5.65 456.58-5 457.16-4.35 457.16-3.2L457.16-3.2Q457.16-1.8 455.63-0.9 454.11 0 452.36 0L452.36 0Q451.31 0 450.03-0.18 448.76-0.35 447.63-1.03 446.51-1.7 445.76-3.1 445.01-4.5 445.01-6.95L445.01-6.95 445.01-29.45Q445.01-30.75 445.88-31.63 446.76-32.5 448.06-32.5ZM468.51-23.7L468.51-3.05Q468.51-1.75 467.66-0.88 466.81 0 465.51 0L465.51 0Q464.21 0 463.36-0.88 462.51-1.75 462.51-3.05L462.51-3.05 462.51-23.7Q462.51-25 463.36-25.88 464.21-26.75 465.51-26.75L465.51-26.75Q466.81-26.75 467.66-25.88 468.51-25 468.51-23.7L468.51-23.7ZM465.46-30L465.46-30Q463.76-30 463.06-30.55 462.36-31.1 462.36-32.5L462.36-32.5 462.36-33.45Q462.36-34.9 463.13-35.43 463.91-35.95 465.51-35.95L465.51-35.95Q467.26-35.95 467.96-35.4 468.66-34.85 468.66-33.45L468.66-33.45 468.66-32.5Q468.66-31.05 467.91-30.53 467.16-30 465.46-30ZM486.3-27.25L486.3-27.25Q489.15-27.25 491.28-26.65 493.4-26.05 494.58-24.98 495.75-23.9 495.75-22.4L495.75-22.4Q495.75-21.4 495.15-20.53 494.55-19.65 493.4-19.65L493.4-19.65Q492.6-19.65 492.08-19.88 491.55-20.1 491.15-20.45 490.75-20.8 490.2-21.1L490.2-21.1Q489.7-21.4 488.68-21.58 487.65-21.75 487.15-21.75L487.15-21.75Q484.6-21.75 482.83-20.65 481.05-19.55 480.1-17.68 479.15-15.8 479.15-13.35L479.15-13.35Q479.15-10.95 480.13-9.08 481.1-7.2 482.83-6.1 484.55-5 486.8-5L486.8-5Q488.05-5 488.95-5.15 489.85-5.3 490.45-5.6L490.45-5.6Q491.15-6 491.7-6.45 492.25-6.9 493.35-6.9L493.35-6.9Q494.65-6.9 495.35-6.08 496.05-5.25 496.05-4.05L496.05-4.05Q496.05-2.8 494.65-1.78 493.25-0.75 490.98-0.13 488.7 0.5 486.05 0.5L486.05 0.5Q482.1 0.5 479.2-1.33 476.3-3.15 474.73-6.3 473.15-9.45 473.15-13.35L473.15-13.35Q473.15-17.45 474.83-20.58 476.5-23.7 479.48-25.48 482.45-27.25 486.3-27.25Z" opacity="1" transform="matrix(1,0,0,1,0,0)" fill="#c9efc7" class="undefined-text-1" data-fill-palette-color="secondary" id="text-1"></path></svg></g></svg></g></svg></g></svg></g><g transform="matrix(1,0,0,1,405.15019642664373,0)"><svg viewBox="0 0 100.21067182964873 100.21067182964873" height="100.21067182964873" width="100.21067182964873"><g data-palette-color="#31c48d"><rect width="27.390916966770657" height="100.21067182964873" fill="#31c48d" stroke="transparent" data-fill-palette-color="accent" x="0" fill-opacity="1"></rect><rect width="27.390916966770657" height="100.21067182964873" fill="#31c48d" stroke="transparent" data-fill-palette-color="accent" x="33.40355727654958" fill-opacity="0.75"></rect><rect width="27.390916966770657" height="100.21067182964873" fill="#31c48d" stroke="transparent" data-fill-palette-color="accent" x="66.80711455309915" fill-opacity="0.5"></rect></g></svg></g></svg></g></svg><rect width="395.52" height="78.42974676456689" fill="none" stroke="none" visibility="hidden"></rect></g></svg></g></svg>